<svg width="327" height="214">
    <defs>
        <linearGradient id="paint0_linear" x1="24" y1="135" x2="351" y2="135" gradientUnits="userSpaceOnUse" gradientTransform="matrix(1, 0, 0, 1, -24.294093, -27.889576)">
            <stop stop-color="#07122A"></stop>
            <stop offset="1" stop-color="#141E35"></stop>
        </linearGradient>
    </defs>
    <rect x="0" y="0" width="327" height="214" rx="8" fill="url(#paint0_linear)"></rect>
    <ellipse cx="255" cy="110" rx="146.451" ry="147.571" fill="white" fill-opacity="0.12"></ellipse>
    <path d="M 281.226 31.566 L 264.394 31.566 L 264.394 59.603 L 281.226 59.603 L 281.226 31.566 Z" fill="white"></path>
    <path d="M 266.127 45.588 C 266.125 42.888 266.725 40.223 267.882 37.795 C 269.039 35.366 270.723 33.238 272.805 31.571 C 270.226 29.504 267.128 28.219 263.867 27.862 C 260.605 27.505 257.311 28.091 254.36 29.554 C 251.41 31.016 248.922 33.295 247.182 36.131 C 245.442 38.967 244.519 42.245 244.519 45.59 C 244.519 48.935 245.442 52.213 247.182 55.049 C 248.922 57.885 251.41 60.164 254.36 61.627 C 257.311 63.089 260.605 63.675 263.867 63.318 C 267.128 62.961 270.226 61.676 272.805 59.609 C 270.722 57.941 269.038 55.812 267.881 53.383 C 266.724 50.954 266.125 48.288 266.127 45.588 Z" fill="#E4E4E4"></path>
    <path d="M 301.094 45.587 C 301.094 48.933 300.171 52.211 298.43 55.047 C 296.689 57.883 294.201 60.162 291.251 61.624 C 288.3 63.086 285.005 63.672 281.743 63.314 C 278.481 62.957 275.384 61.671 272.805 59.603 C 274.887 57.935 276.569 55.806 277.727 53.378 C 278.884 50.949 279.485 48.284 279.485 45.584 C 279.485 42.884 278.884 40.22 277.727 37.791 C 276.569 35.363 274.887 33.234 272.805 31.566 C 275.384 29.498 278.481 28.212 281.743 27.855 C 285.005 27.497 288.3 28.083 291.251 29.545 C 294.201 31.007 296.689 33.286 298.43 36.122 C 300.171 38.958 301.094 42.236 301.094 45.582 L 301.094 45.587 Z" fill="#E4E4E4"></path>
</svg>