<svg width="135" height="135" 
    xmlns="http://www.w3.org/2000/svg" 
    xmlns:svg="http://www.w3.org/2000/svg">
    <g class="layer">
        <title>Layer 1</title>
        <rect fill="white" fill-opacity="0.5" height="156.133" id="svg_1" opacity="0.1" rx="10" transform="matrix(0.864786 -0.502141 0.497862 0.867256 -3 107.971)" width="155.688" x="-66.908" y="-36.43359"/>
        <rect fill="white" fill-opacity="0.5" height="131.58" id="svg_2" opacity="0.2" rx="10" transform="matrix(0.939063 -0.343746 0.340301 0.940317 10.7017 68.0328)" width="131.006" x="-72.14512" y="-24.24671"/>
        <path d="m0,12c0,-6.62742 5.3726,-12 12,-12l111,0c6.627,0 12,5.37258 12,12l0,111c0,6.627 -5.373,12 -12,12l-111,0c-6.6274,0 -12,-5.373 -12,-12l0,-111z" fill="#07122A" id="svg_3"/>
        <rect fill="white" height="38" id="svg_4" opacity="0.3" rx="3" width="8" x="83" y="47"/>
        <rect fill="white" height="37" id="svg_5" opacity="0.1" rx="6" width="22" x="40" y="34"/>
        <path d="m84.272,98.8932l-8.994,0c-0.689,0.0766 -1.384,-0.0761 -1.977,-0.4344c-0.593,-0.3583 -1.052,-0.9022 -1.305,-1.5475c-3.33,-6.66 -6.952,-13.2131 -9.971,-20.1169c-2.661,-5.7397 -3.852,-12.0516 -3.465,-18.3665c0.386,-6.3149 2.339,-12.4341 5.681,-17.806c0.411,-0.7031 1.3,-1.5619 1.973,-1.5619c0.684,0 1.485,0.9375 1.856,1.6707c9.073,18.1443 18.154,36.2981 27.246,54.4631c1.348,2.6081 0.722,3.6712 -2.265,3.7012l-8.779,-0.0018zm-36.426,0l-9.247,0c-2.597,0 -3.175,-1.0444 -2.031,-3.33c4.669,-9.2288 9.296,-18.4482 13.877,-27.6375c1.251,-2.6082 2.237,-2.6082 3.975,-0.45c3.247,3.7891 5.517,8.3157 6.612,13.1843c1.094,4.8687 0.98,9.9313 -0.333,14.7457c-0.858,3.3 -1.327,3.5156 -4.657,3.5156l-8.196,-0.0281z" fill="white" id="svg_6"/>
    </g>
</svg>